<mxfile host="app.diagrams.net" agent="Mozilla/5.0 (X11; Linux x86_64) AppleWebKit/537.36 (KHTML, like Gecko) Chrome/133.0.0.0 Safari/537.36" version="26.0.11">
  <diagram name="第 1 页" id="JN35SuFDK3MXwfd0JbLO">
    <mxGraphModel dx="2248" dy="641" grid="1" gridSize="10" guides="1" tooltips="1" connect="1" arrows="1" fold="1" page="1" pageScale="1" pageWidth="827" pageHeight="1169" math="0" shadow="0">
      <root>
        <mxCell id="0" />
        <mxCell id="1" parent="0" />
        <mxCell id="3Dd6kCoNUB1yUHotrozj-85" value="" style="group" vertex="1" connectable="0" parent="1">
          <mxGeometry x="490" y="280" width="60" height="69.5" as="geometry" />
        </mxCell>
        <mxCell id="3Dd6kCoNUB1yUHotrozj-86" value="Q" style="rounded=0;whiteSpace=wrap;html=1;sketch=1;hachureGap=4;jiggle=2;curveFitting=1;fontFamily=Architects Daughter;fontSource=https://fonts.googleapis.com/css?family=Architects+Daughter;labelBackgroundColor=none;" vertex="1" parent="3Dd6kCoNUB1yUHotrozj-85">
          <mxGeometry x="30" width="30" height="42.87" as="geometry" />
        </mxCell>
        <mxCell id="3Dd6kCoNUB1yUHotrozj-87" value="Q" style="rounded=0;whiteSpace=wrap;html=1;sketch=1;hachureGap=4;jiggle=2;curveFitting=1;fontFamily=Architects Daughter;fontSource=https://fonts.googleapis.com/css?family=Architects+Daughter;labelBackgroundColor=none;" vertex="1" parent="3Dd6kCoNUB1yUHotrozj-85">
          <mxGeometry x="20" y="6.6299999999999955" width="30" height="42.87" as="geometry" />
        </mxCell>
        <mxCell id="3Dd6kCoNUB1yUHotrozj-88" value="Q" style="rounded=0;whiteSpace=wrap;html=1;sketch=1;hachureGap=4;jiggle=2;curveFitting=1;fontFamily=Architects Daughter;fontSource=https://fonts.googleapis.com/css?family=Architects+Daughter;labelBackgroundColor=none;" vertex="1" parent="3Dd6kCoNUB1yUHotrozj-85">
          <mxGeometry x="10" y="17.129999999999995" width="30" height="42.87" as="geometry" />
        </mxCell>
        <mxCell id="3Dd6kCoNUB1yUHotrozj-89" value="Q" style="rounded=0;whiteSpace=wrap;html=1;sketch=1;hachureGap=4;jiggle=2;curveFitting=1;fontFamily=Architects Daughter;fontSource=https://fonts.googleapis.com/css?family=Architects+Daughter;labelBackgroundColor=none;" vertex="1" parent="3Dd6kCoNUB1yUHotrozj-85">
          <mxGeometry y="26.629999999999995" width="30" height="42.87" as="geometry" />
        </mxCell>
        <mxCell id="3Dd6kCoNUB1yUHotrozj-84" value="" style="group" vertex="1" connectable="0" parent="1">
          <mxGeometry x="550" y="280" width="60" height="69.5" as="geometry" />
        </mxCell>
        <mxCell id="3Dd6kCoNUB1yUHotrozj-75" value="Q" style="rounded=0;whiteSpace=wrap;html=1;sketch=1;hachureGap=4;jiggle=2;curveFitting=1;fontFamily=Architects Daughter;fontSource=https://fonts.googleapis.com/css?family=Architects+Daughter;labelBackgroundColor=none;" vertex="1" parent="3Dd6kCoNUB1yUHotrozj-84">
          <mxGeometry x="30" width="30" height="42.87" as="geometry" />
        </mxCell>
        <mxCell id="3Dd6kCoNUB1yUHotrozj-76" value="Q" style="rounded=0;whiteSpace=wrap;html=1;sketch=1;hachureGap=4;jiggle=2;curveFitting=1;fontFamily=Architects Daughter;fontSource=https://fonts.googleapis.com/css?family=Architects+Daughter;labelBackgroundColor=none;" vertex="1" parent="3Dd6kCoNUB1yUHotrozj-84">
          <mxGeometry x="20" y="6.6299999999999955" width="30" height="42.87" as="geometry" />
        </mxCell>
        <mxCell id="3Dd6kCoNUB1yUHotrozj-77" value="Q" style="rounded=0;whiteSpace=wrap;html=1;sketch=1;hachureGap=4;jiggle=2;curveFitting=1;fontFamily=Architects Daughter;fontSource=https://fonts.googleapis.com/css?family=Architects+Daughter;labelBackgroundColor=none;" vertex="1" parent="3Dd6kCoNUB1yUHotrozj-84">
          <mxGeometry x="10" y="17.129999999999995" width="30" height="42.87" as="geometry" />
        </mxCell>
        <mxCell id="3Dd6kCoNUB1yUHotrozj-78" value="Q" style="rounded=0;whiteSpace=wrap;html=1;sketch=1;hachureGap=4;jiggle=2;curveFitting=1;fontFamily=Architects Daughter;fontSource=https://fonts.googleapis.com/css?family=Architects+Daughter;labelBackgroundColor=none;" vertex="1" parent="3Dd6kCoNUB1yUHotrozj-84">
          <mxGeometry y="26.629999999999995" width="30" height="42.87" as="geometry" />
        </mxCell>
        <mxCell id="3Dd6kCoNUB1yUHotrozj-90" value="" style="group" vertex="1" connectable="0" parent="1">
          <mxGeometry x="640" y="280" width="60" height="69.5" as="geometry" />
        </mxCell>
        <mxCell id="3Dd6kCoNUB1yUHotrozj-91" value="Q" style="rounded=0;whiteSpace=wrap;html=1;sketch=1;hachureGap=4;jiggle=2;curveFitting=1;fontFamily=Architects Daughter;fontSource=https://fonts.googleapis.com/css?family=Architects+Daughter;labelBackgroundColor=none;" vertex="1" parent="3Dd6kCoNUB1yUHotrozj-90">
          <mxGeometry x="30" width="30" height="42.87" as="geometry" />
        </mxCell>
        <mxCell id="3Dd6kCoNUB1yUHotrozj-92" value="Q" style="rounded=0;whiteSpace=wrap;html=1;sketch=1;hachureGap=4;jiggle=2;curveFitting=1;fontFamily=Architects Daughter;fontSource=https://fonts.googleapis.com/css?family=Architects+Daughter;labelBackgroundColor=none;" vertex="1" parent="3Dd6kCoNUB1yUHotrozj-90">
          <mxGeometry x="20" y="6.6299999999999955" width="30" height="42.87" as="geometry" />
        </mxCell>
        <mxCell id="3Dd6kCoNUB1yUHotrozj-93" value="Q" style="rounded=0;whiteSpace=wrap;html=1;sketch=1;hachureGap=4;jiggle=2;curveFitting=1;fontFamily=Architects Daughter;fontSource=https://fonts.googleapis.com/css?family=Architects+Daughter;labelBackgroundColor=none;" vertex="1" parent="3Dd6kCoNUB1yUHotrozj-90">
          <mxGeometry x="10" y="17.129999999999995" width="30" height="42.87" as="geometry" />
        </mxCell>
        <mxCell id="3Dd6kCoNUB1yUHotrozj-94" value="Q" style="rounded=0;whiteSpace=wrap;html=1;sketch=1;hachureGap=4;jiggle=2;curveFitting=1;fontFamily=Architects Daughter;fontSource=https://fonts.googleapis.com/css?family=Architects+Daughter;labelBackgroundColor=none;" vertex="1" parent="3Dd6kCoNUB1yUHotrozj-90">
          <mxGeometry y="26.629999999999995" width="30" height="42.87" as="geometry" />
        </mxCell>
        <mxCell id="N6Xidad4AhdnbWr3vDnz-57" value="slice" style="shape=singleArrow;whiteSpace=wrap;html=1;sketch=1;hachureGap=4;jiggle=2;curveFitting=1;fontFamily=Architects Daughter;fontSource=https%3A%2F%2Ffonts.googleapis.com%2Fcss%3Ffamily%3DArchitects%2BDaughter;rounded=0;labelBackgroundColor=none;" parent="1" vertex="1">
          <mxGeometry x="344" y="225.75" width="70" height="50" as="geometry" />
        </mxCell>
        <mxCell id="N6Xidad4AhdnbWr3vDnz-83" value="" style="endArrow=classic;html=1;rounded=0;sketch=1;hachureGap=4;jiggle=2;curveFitting=1;fontFamily=Architects Daughter;fontSource=https%3A%2F%2Ffonts.googleapis.com%2Fcss%3Ffamily%3DArchitects%2BDaughter;labelBackgroundColor=none;fontColor=default;" parent="1" edge="1">
          <mxGeometry relative="1" as="geometry">
            <mxPoint x="480" y="359.5" as="sourcePoint" />
            <mxPoint x="530" y="359.5" as="targetPoint" />
          </mxGeometry>
        </mxCell>
        <mxCell id="N6Xidad4AhdnbWr3vDnz-84" value="16" style="edgeLabel;resizable=0;html=1;;align=center;verticalAlign=middle;sketch=1;hachureGap=4;jiggle=2;curveFitting=1;fontFamily=Architects Daughter;fontSource=https%3A%2F%2Ffonts.googleapis.com%2Fcss%3Ffamily%3DArchitects%2BDaughter;fontSize=13;rounded=0;labelBackgroundColor=none;" parent="N6Xidad4AhdnbWr3vDnz-83" connectable="0" vertex="1">
          <mxGeometry relative="1" as="geometry" />
        </mxCell>
        <mxCell id="3Dd6kCoNUB1yUHotrozj-72" value="" style="group" vertex="1" connectable="0" parent="1">
          <mxGeometry x="490" y="210" width="250" height="145.25" as="geometry" />
        </mxCell>
        <mxCell id="3Dd6kCoNUB1yUHotrozj-54" value="" style="group;rounded=0;labelBackgroundColor=none;" vertex="1" connectable="0" parent="3Dd6kCoNUB1yUHotrozj-72">
          <mxGeometry width="60" height="85.25" as="geometry" />
        </mxCell>
        <mxCell id="3Dd6kCoNUB1yUHotrozj-55" value="" style="rounded=0;whiteSpace=wrap;html=1;sketch=1;hachureGap=4;jiggle=2;curveFitting=1;fontFamily=Architects Daughter;fontSource=https://fonts.googleapis.com/css?family=Architects+Daughter;labelBackgroundColor=none;" vertex="1" parent="3Dd6kCoNUB1yUHotrozj-54">
          <mxGeometry x="30" width="30" height="60.5" as="geometry" />
        </mxCell>
        <mxCell id="3Dd6kCoNUB1yUHotrozj-56" value="" style="rounded=0;whiteSpace=wrap;html=1;sketch=1;hachureGap=4;jiggle=2;curveFitting=1;fontFamily=Architects Daughter;fontSource=https://fonts.googleapis.com/css?family=Architects+Daughter;labelBackgroundColor=none;" vertex="1" parent="3Dd6kCoNUB1yUHotrozj-54">
          <mxGeometry x="20" y="9.5" width="30" height="60.5" as="geometry" />
        </mxCell>
        <mxCell id="3Dd6kCoNUB1yUHotrozj-57" value="" style="rounded=0;whiteSpace=wrap;html=1;sketch=1;hachureGap=4;jiggle=2;curveFitting=1;fontFamily=Architects Daughter;fontSource=https://fonts.googleapis.com/css?family=Architects+Daughter;labelBackgroundColor=none;" vertex="1" parent="3Dd6kCoNUB1yUHotrozj-54">
          <mxGeometry x="10" y="14.75" width="30" height="60.5" as="geometry" />
        </mxCell>
        <mxCell id="3Dd6kCoNUB1yUHotrozj-58" value="Q" style="rounded=0;whiteSpace=wrap;html=1;sketch=1;hachureGap=4;jiggle=2;curveFitting=1;fontFamily=Architects Daughter;fontSource=https://fonts.googleapis.com/css?family=Architects+Daughter;labelBackgroundColor=none;" vertex="1" parent="3Dd6kCoNUB1yUHotrozj-54">
          <mxGeometry y="24.75" width="30" height="60.5" as="geometry" />
        </mxCell>
        <mxCell id="3Dd6kCoNUB1yUHotrozj-59" value="" style="group;rounded=0;labelBackgroundColor=none;" vertex="1" connectable="0" parent="3Dd6kCoNUB1yUHotrozj-72">
          <mxGeometry x="60" y="0.5" width="190" height="144.75" as="geometry" />
        </mxCell>
        <mxCell id="3Dd6kCoNUB1yUHotrozj-60" value="" style="rounded=0;whiteSpace=wrap;html=1;sketch=1;hachureGap=4;jiggle=2;curveFitting=1;fontFamily=Architects Daughter;fontSource=https://fonts.googleapis.com/css?family=Architects+Daughter;labelBackgroundColor=none;" vertex="1" parent="3Dd6kCoNUB1yUHotrozj-59">
          <mxGeometry x="30" width="30" height="60.5" as="geometry" />
        </mxCell>
        <mxCell id="3Dd6kCoNUB1yUHotrozj-61" value="" style="rounded=0;whiteSpace=wrap;html=1;sketch=1;hachureGap=4;jiggle=2;curveFitting=1;fontFamily=Architects Daughter;fontSource=https://fonts.googleapis.com/css?family=Architects+Daughter;labelBackgroundColor=none;" vertex="1" parent="3Dd6kCoNUB1yUHotrozj-59">
          <mxGeometry x="20" y="9.5" width="30" height="60.5" as="geometry" />
        </mxCell>
        <mxCell id="3Dd6kCoNUB1yUHotrozj-62" value="" style="rounded=0;whiteSpace=wrap;html=1;sketch=1;hachureGap=4;jiggle=2;curveFitting=1;fontFamily=Architects Daughter;fontSource=https://fonts.googleapis.com/css?family=Architects+Daughter;labelBackgroundColor=none;" vertex="1" parent="3Dd6kCoNUB1yUHotrozj-59">
          <mxGeometry x="10" y="14.75" width="30" height="60.5" as="geometry" />
        </mxCell>
        <mxCell id="3Dd6kCoNUB1yUHotrozj-63" value="Q" style="rounded=0;whiteSpace=wrap;html=1;sketch=1;hachureGap=4;jiggle=2;curveFitting=1;fontFamily=Architects Daughter;fontSource=https://fonts.googleapis.com/css?family=Architects+Daughter;labelBackgroundColor=none;" vertex="1" parent="3Dd6kCoNUB1yUHotrozj-59">
          <mxGeometry y="24.75" width="30" height="60.5" as="geometry" />
        </mxCell>
        <mxCell id="3Dd6kCoNUB1yUHotrozj-64" value="" style="endArrow=classic;html=1;sketch=1;hachureGap=4;jiggle=2;curveFitting=1;fontFamily=Architects Daughter;fontSource=https://fonts.googleapis.com/css?family=Architects+Daughter;" edge="1" parent="3Dd6kCoNUB1yUHotrozj-59">
          <mxGeometry width="50" height="50" relative="1" as="geometry">
            <mxPoint x="-40" y="50" as="sourcePoint" />
            <mxPoint x="10" as="targetPoint" />
          </mxGeometry>
        </mxCell>
        <mxCell id="3Dd6kCoNUB1yUHotrozj-65" value="4" style="edgeLabel;html=1;align=center;verticalAlign=middle;resizable=0;points=[];sketch=1;hachureGap=4;jiggle=2;curveFitting=1;fontFamily=Architects Daughter;fontSource=https://fonts.googleapis.com/css?family=Architects+Daughter;" vertex="1" connectable="0" parent="3Dd6kCoNUB1yUHotrozj-64">
          <mxGeometry x="-0.0038" relative="1" as="geometry">
            <mxPoint as="offset" />
          </mxGeometry>
        </mxCell>
        <mxCell id="3Dd6kCoNUB1yUHotrozj-179" value="" style="shape=curlyBracket;whiteSpace=wrap;html=1;rounded=1;flipH=1;labelPosition=right;verticalLabelPosition=middle;align=left;verticalAlign=middle;sketch=1;hachureGap=4;jiggle=2;curveFitting=1;fontFamily=Architects Daughter;fontSource=https%3A%2F%2Ffonts.googleapis.com%2Fcss%3Ffamily%3DArchitects%2BDaughter;" vertex="1" parent="3Dd6kCoNUB1yUHotrozj-59">
          <mxGeometry x="160" y="70" width="20" height="44.75" as="geometry" />
        </mxCell>
        <mxCell id="3Dd6kCoNUB1yUHotrozj-185" value="" style="shape=curlyBracket;whiteSpace=wrap;html=1;rounded=1;flipH=1;labelPosition=right;verticalLabelPosition=middle;align=left;verticalAlign=middle;sketch=1;hachureGap=4;jiggle=2;curveFitting=1;fontFamily=Architects Daughter;fontSource=https%3A%2F%2Ffonts.googleapis.com%2Fcss%3Ffamily%3DArchitects%2BDaughter;" vertex="1" parent="3Dd6kCoNUB1yUHotrozj-59">
          <mxGeometry x="160" width="20" height="60" as="geometry" />
        </mxCell>
        <mxCell id="3Dd6kCoNUB1yUHotrozj-66" value="" style="group;rounded=0;labelBackgroundColor=none;" vertex="1" connectable="0" parent="3Dd6kCoNUB1yUHotrozj-72">
          <mxGeometry x="150" y="0.5" width="60" height="85.25" as="geometry" />
        </mxCell>
        <mxCell id="3Dd6kCoNUB1yUHotrozj-67" value="" style="rounded=0;whiteSpace=wrap;html=1;sketch=1;hachureGap=4;jiggle=2;curveFitting=1;fontFamily=Architects Daughter;fontSource=https://fonts.googleapis.com/css?family=Architects+Daughter;labelBackgroundColor=none;" vertex="1" parent="3Dd6kCoNUB1yUHotrozj-66">
          <mxGeometry x="30" width="30" height="60.5" as="geometry" />
        </mxCell>
        <mxCell id="3Dd6kCoNUB1yUHotrozj-68" value="" style="rounded=0;whiteSpace=wrap;html=1;sketch=1;hachureGap=4;jiggle=2;curveFitting=1;fontFamily=Architects Daughter;fontSource=https://fonts.googleapis.com/css?family=Architects+Daughter;labelBackgroundColor=none;" vertex="1" parent="3Dd6kCoNUB1yUHotrozj-66">
          <mxGeometry x="20" y="9.5" width="30" height="60.5" as="geometry" />
        </mxCell>
        <mxCell id="3Dd6kCoNUB1yUHotrozj-69" value="" style="rounded=0;whiteSpace=wrap;html=1;sketch=1;hachureGap=4;jiggle=2;curveFitting=1;fontFamily=Architects Daughter;fontSource=https://fonts.googleapis.com/css?family=Architects+Daughter;labelBackgroundColor=none;" vertex="1" parent="3Dd6kCoNUB1yUHotrozj-66">
          <mxGeometry x="10" y="14.75" width="30" height="60.5" as="geometry" />
        </mxCell>
        <mxCell id="3Dd6kCoNUB1yUHotrozj-70" value="Q" style="rounded=0;whiteSpace=wrap;html=1;sketch=1;hachureGap=4;jiggle=2;curveFitting=1;fontFamily=Architects Daughter;fontSource=https://fonts.googleapis.com/css?family=Architects+Daughter;labelBackgroundColor=none;" vertex="1" parent="3Dd6kCoNUB1yUHotrozj-66">
          <mxGeometry y="24.75" width="30" height="60.5" as="geometry" />
        </mxCell>
        <mxCell id="3Dd6kCoNUB1yUHotrozj-71" value="" style="endArrow=none;dashed=1;html=1;dashPattern=1 3;strokeWidth=2;rounded=0;sketch=1;hachureGap=4;jiggle=2;curveFitting=1;fontFamily=Architects Daughter;fontSource=https://fonts.googleapis.com/css?family=Architects+Daughter;labelBackgroundColor=none;fontColor=default;" edge="1" parent="3Dd6kCoNUB1yUHotrozj-72">
          <mxGeometry width="50" height="50" relative="1" as="geometry">
            <mxPoint x="130" y="39.5" as="sourcePoint" />
            <mxPoint x="150" y="39.5" as="targetPoint" />
          </mxGeometry>
        </mxCell>
        <mxCell id="N6Xidad4AhdnbWr3vDnz-86" value="" style="endArrow=classic;html=1;rounded=0;sketch=1;hachureGap=4;jiggle=2;curveFitting=1;fontFamily=Architects Daughter;fontSource=https%3A%2F%2Ffonts.googleapis.com%2Fcss%3Ffamily%3DArchitects%2BDaughter;labelBackgroundColor=none;fontColor=default;" parent="1" edge="1">
          <mxGeometry relative="1" as="geometry">
            <mxPoint x="480" y="155.25" as="sourcePoint" />
            <mxPoint x="480" y="225.25" as="targetPoint" />
          </mxGeometry>
        </mxCell>
        <mxCell id="N6Xidad4AhdnbWr3vDnz-87" value="512" style="edgeLabel;resizable=0;html=1;;align=center;verticalAlign=middle;sketch=1;hachureGap=4;jiggle=2;curveFitting=1;fontFamily=Architects Daughter;fontSource=https%3A%2F%2Ffonts.googleapis.com%2Fcss%3Ffamily%3DArchitects%2BDaughter;fontSize=13;rounded=0;labelBackgroundColor=none;" parent="N6Xidad4AhdnbWr3vDnz-86" connectable="0" vertex="1">
          <mxGeometry relative="1" as="geometry" />
        </mxCell>
        <mxCell id="N6Xidad4AhdnbWr3vDnz-96" value="" style="group;rounded=0;labelBackgroundColor=none;" parent="1" vertex="1" connectable="0">
          <mxGeometry x="490" y="140" width="60" height="85.25" as="geometry" />
        </mxCell>
        <mxCell id="N6Xidad4AhdnbWr3vDnz-75" value="" style="rounded=0;whiteSpace=wrap;html=1;sketch=1;hachureGap=4;jiggle=2;curveFitting=1;fontFamily=Architects Daughter;fontSource=https%3A%2F%2Ffonts.googleapis.com%2Fcss%3Ffamily%3DArchitects%2BDaughter;labelBackgroundColor=none;" parent="N6Xidad4AhdnbWr3vDnz-96" vertex="1">
          <mxGeometry x="30" width="30" height="60.5" as="geometry" />
        </mxCell>
        <mxCell id="N6Xidad4AhdnbWr3vDnz-77" value="" style="rounded=0;whiteSpace=wrap;html=1;sketch=1;hachureGap=4;jiggle=2;curveFitting=1;fontFamily=Architects Daughter;fontSource=https%3A%2F%2Ffonts.googleapis.com%2Fcss%3Ffamily%3DArchitects%2BDaughter;labelBackgroundColor=none;" parent="N6Xidad4AhdnbWr3vDnz-96" vertex="1">
          <mxGeometry x="20" y="9.5" width="30" height="60.5" as="geometry" />
        </mxCell>
        <mxCell id="N6Xidad4AhdnbWr3vDnz-78" value="" style="rounded=0;whiteSpace=wrap;html=1;sketch=1;hachureGap=4;jiggle=2;curveFitting=1;fontFamily=Architects Daughter;fontSource=https%3A%2F%2Ffonts.googleapis.com%2Fcss%3Ffamily%3DArchitects%2BDaughter;labelBackgroundColor=none;" parent="N6Xidad4AhdnbWr3vDnz-96" vertex="1">
          <mxGeometry x="10" y="14.75" width="30" height="60.5" as="geometry" />
        </mxCell>
        <mxCell id="N6Xidad4AhdnbWr3vDnz-79" value="Q" style="rounded=0;whiteSpace=wrap;html=1;sketch=1;hachureGap=4;jiggle=2;curveFitting=1;fontFamily=Architects Daughter;fontSource=https%3A%2F%2Ffonts.googleapis.com%2Fcss%3Ffamily%3DArchitects%2BDaughter;labelBackgroundColor=none;" parent="N6Xidad4AhdnbWr3vDnz-96" vertex="1">
          <mxGeometry y="24.75" width="30" height="60.5" as="geometry" />
        </mxCell>
        <mxCell id="N6Xidad4AhdnbWr3vDnz-97" value="" style="group;rounded=0;labelBackgroundColor=none;" parent="1" vertex="1" connectable="0">
          <mxGeometry x="550" y="140.5" width="60" height="85.25" as="geometry" />
        </mxCell>
        <mxCell id="N6Xidad4AhdnbWr3vDnz-98" value="" style="rounded=0;whiteSpace=wrap;html=1;sketch=1;hachureGap=4;jiggle=2;curveFitting=1;fontFamily=Architects Daughter;fontSource=https%3A%2F%2Ffonts.googleapis.com%2Fcss%3Ffamily%3DArchitects%2BDaughter;labelBackgroundColor=none;" parent="N6Xidad4AhdnbWr3vDnz-97" vertex="1">
          <mxGeometry x="30" width="30" height="60.5" as="geometry" />
        </mxCell>
        <mxCell id="N6Xidad4AhdnbWr3vDnz-99" value="" style="rounded=0;whiteSpace=wrap;html=1;sketch=1;hachureGap=4;jiggle=2;curveFitting=1;fontFamily=Architects Daughter;fontSource=https%3A%2F%2Ffonts.googleapis.com%2Fcss%3Ffamily%3DArchitects%2BDaughter;labelBackgroundColor=none;" parent="N6Xidad4AhdnbWr3vDnz-97" vertex="1">
          <mxGeometry x="20" y="9.5" width="30" height="60.5" as="geometry" />
        </mxCell>
        <mxCell id="N6Xidad4AhdnbWr3vDnz-100" value="" style="rounded=0;whiteSpace=wrap;html=1;sketch=1;hachureGap=4;jiggle=2;curveFitting=1;fontFamily=Architects Daughter;fontSource=https%3A%2F%2Ffonts.googleapis.com%2Fcss%3Ffamily%3DArchitects%2BDaughter;labelBackgroundColor=none;" parent="N6Xidad4AhdnbWr3vDnz-97" vertex="1">
          <mxGeometry x="10" y="14.75" width="30" height="60.5" as="geometry" />
        </mxCell>
        <mxCell id="N6Xidad4AhdnbWr3vDnz-101" value="Q" style="rounded=0;whiteSpace=wrap;html=1;sketch=1;hachureGap=4;jiggle=2;curveFitting=1;fontFamily=Architects Daughter;fontSource=https%3A%2F%2Ffonts.googleapis.com%2Fcss%3Ffamily%3DArchitects%2BDaughter;labelBackgroundColor=none;" parent="N6Xidad4AhdnbWr3vDnz-97" vertex="1">
          <mxGeometry y="24.75" width="30" height="60.5" as="geometry" />
        </mxCell>
        <mxCell id="jezAV-IK5mSsvZsT85bj-34" value="" style="endArrow=classic;html=1;sketch=1;hachureGap=4;jiggle=2;curveFitting=1;fontFamily=Architects Daughter;fontSource=https%3A%2F%2Ffonts.googleapis.com%2Fcss%3Ffamily%3DArchitects%2BDaughter;" parent="N6Xidad4AhdnbWr3vDnz-97" edge="1">
          <mxGeometry width="50" height="50" relative="1" as="geometry">
            <mxPoint x="-40" y="50" as="sourcePoint" />
            <mxPoint x="10" as="targetPoint" />
          </mxGeometry>
        </mxCell>
        <mxCell id="jezAV-IK5mSsvZsT85bj-35" value="4" style="edgeLabel;html=1;align=center;verticalAlign=middle;resizable=0;points=[];sketch=1;hachureGap=4;jiggle=2;curveFitting=1;fontFamily=Architects Daughter;fontSource=https%3A%2F%2Ffonts.googleapis.com%2Fcss%3Ffamily%3DArchitects%2BDaughter;" parent="jezAV-IK5mSsvZsT85bj-34" vertex="1" connectable="0">
          <mxGeometry x="-0.0038" relative="1" as="geometry">
            <mxPoint as="offset" />
          </mxGeometry>
        </mxCell>
        <mxCell id="N6Xidad4AhdnbWr3vDnz-102" value="" style="group;rounded=0;labelBackgroundColor=none;" parent="1" vertex="1" connectable="0">
          <mxGeometry x="640" y="140.5" width="60" height="85.25" as="geometry" />
        </mxCell>
        <mxCell id="N6Xidad4AhdnbWr3vDnz-103" value="" style="rounded=0;whiteSpace=wrap;html=1;sketch=1;hachureGap=4;jiggle=2;curveFitting=1;fontFamily=Architects Daughter;fontSource=https%3A%2F%2Ffonts.googleapis.com%2Fcss%3Ffamily%3DArchitects%2BDaughter;labelBackgroundColor=none;" parent="N6Xidad4AhdnbWr3vDnz-102" vertex="1">
          <mxGeometry x="30" width="30" height="60.5" as="geometry" />
        </mxCell>
        <mxCell id="N6Xidad4AhdnbWr3vDnz-104" value="" style="rounded=0;whiteSpace=wrap;html=1;sketch=1;hachureGap=4;jiggle=2;curveFitting=1;fontFamily=Architects Daughter;fontSource=https%3A%2F%2Ffonts.googleapis.com%2Fcss%3Ffamily%3DArchitects%2BDaughter;labelBackgroundColor=none;" parent="N6Xidad4AhdnbWr3vDnz-102" vertex="1">
          <mxGeometry x="20" y="9.5" width="30" height="60.5" as="geometry" />
        </mxCell>
        <mxCell id="N6Xidad4AhdnbWr3vDnz-105" value="" style="rounded=0;whiteSpace=wrap;html=1;sketch=1;hachureGap=4;jiggle=2;curveFitting=1;fontFamily=Architects Daughter;fontSource=https%3A%2F%2Ffonts.googleapis.com%2Fcss%3Ffamily%3DArchitects%2BDaughter;labelBackgroundColor=none;" parent="N6Xidad4AhdnbWr3vDnz-102" vertex="1">
          <mxGeometry x="10" y="14.75" width="30" height="60.5" as="geometry" />
        </mxCell>
        <mxCell id="N6Xidad4AhdnbWr3vDnz-106" value="Q" style="rounded=0;whiteSpace=wrap;html=1;sketch=1;hachureGap=4;jiggle=2;curveFitting=1;fontFamily=Architects Daughter;fontSource=https%3A%2F%2Ffonts.googleapis.com%2Fcss%3Ffamily%3DArchitects%2BDaughter;labelBackgroundColor=none;" parent="N6Xidad4AhdnbWr3vDnz-102" vertex="1">
          <mxGeometry y="24.75" width="30" height="60.5" as="geometry" />
        </mxCell>
        <mxCell id="N6Xidad4AhdnbWr3vDnz-117" value="" style="endArrow=classic;html=1;rounded=0;sketch=1;hachureGap=4;jiggle=2;curveFitting=1;fontFamily=Architects Daughter;fontSource=https%3A%2F%2Ffonts.googleapis.com%2Fcss%3Ffamily%3DArchitects%2BDaughter;labelBackgroundColor=none;fontColor=default;" parent="1" edge="1">
          <mxGeometry relative="1" as="geometry">
            <mxPoint x="460" y="120.5" as="sourcePoint" />
            <mxPoint x="710" y="120" as="targetPoint" />
          </mxGeometry>
        </mxCell>
        <mxCell id="N6Xidad4AhdnbWr3vDnz-118" value="1491" style="edgeLabel;resizable=0;html=1;;align=center;verticalAlign=middle;sketch=1;hachureGap=4;jiggle=2;curveFitting=1;fontFamily=Architects Daughter;fontSource=https%3A%2F%2Ffonts.googleapis.com%2Fcss%3Ffamily%3DArchitects%2BDaughter;container=0;fontSize=13;rounded=0;labelBackgroundColor=none;" parent="N6Xidad4AhdnbWr3vDnz-117" connectable="0" vertex="1">
          <mxGeometry relative="1" as="geometry" />
        </mxCell>
        <mxCell id="3Dd6kCoNUB1yUHotrozj-101" value="" style="endArrow=classic;html=1;rounded=0;sketch=1;hachureGap=4;jiggle=2;curveFitting=1;fontFamily=Architects Daughter;fontSource=https%3A%2F%2Ffonts.googleapis.com%2Fcss%3Ffamily%3DArchitects%2BDaughter;labelBackgroundColor=none;fontColor=default;" edge="1" parent="1">
          <mxGeometry relative="1" as="geometry">
            <mxPoint x="480" y="234.5" as="sourcePoint" />
            <mxPoint x="480" y="294.5" as="targetPoint" />
          </mxGeometry>
        </mxCell>
        <mxCell id="3Dd6kCoNUB1yUHotrozj-102" value="512" style="edgeLabel;resizable=0;html=1;;align=center;verticalAlign=middle;sketch=1;hachureGap=4;jiggle=2;curveFitting=1;fontFamily=Architects Daughter;fontSource=https%3A%2F%2Ffonts.googleapis.com%2Fcss%3Ffamily%3DArchitects%2BDaughter;fontSize=13;rounded=0;labelBackgroundColor=none;" connectable="0" vertex="1" parent="3Dd6kCoNUB1yUHotrozj-101">
          <mxGeometry relative="1" as="geometry" />
        </mxCell>
        <mxCell id="3Dd6kCoNUB1yUHotrozj-111" value="" style="endArrow=classic;html=1;rounded=0;sketch=1;hachureGap=4;jiggle=2;curveFitting=1;fontFamily=Architects Daughter;fontSource=https%3A%2F%2Ffonts.googleapis.com%2Fcss%3Ffamily%3DArchitects%2BDaughter;labelBackgroundColor=none;fontColor=default;" edge="1" parent="1">
          <mxGeometry relative="1" as="geometry">
            <mxPoint x="458.5" y="140" as="sourcePoint" />
            <mxPoint x="459" y="360" as="targetPoint" />
          </mxGeometry>
        </mxCell>
        <mxCell id="3Dd6kCoNUB1yUHotrozj-112" value="1491" style="edgeLabel;resizable=0;html=1;;align=center;verticalAlign=middle;sketch=1;hachureGap=4;jiggle=2;curveFitting=1;fontFamily=Architects Daughter;fontSource=https%3A%2F%2Ffonts.googleapis.com%2Fcss%3Ffamily%3DArchitects%2BDaughter;container=0;fontSize=12;rounded=0;labelBackgroundColor=none;" connectable="0" vertex="1" parent="3Dd6kCoNUB1yUHotrozj-111">
          <mxGeometry relative="1" as="geometry" />
        </mxCell>
        <mxCell id="3Dd6kCoNUB1yUHotrozj-116" value="" style="endArrow=classic;html=1;rounded=0;sketch=1;hachureGap=4;jiggle=2;curveFitting=1;fontFamily=Architects Daughter;fontSource=https%3A%2F%2Ffonts.googleapis.com%2Fcss%3Ffamily%3DArchitects%2BDaughter;" edge="1" parent="1">
          <mxGeometry width="50" height="50" relative="1" as="geometry">
            <mxPoint x="480" y="308.5" as="sourcePoint" />
            <mxPoint x="480" y="358.5" as="targetPoint" />
          </mxGeometry>
        </mxCell>
        <mxCell id="3Dd6kCoNUB1yUHotrozj-117" value="467" style="edgeLabel;html=1;align=center;verticalAlign=middle;resizable=0;points=[];sketch=1;hachureGap=4;jiggle=2;curveFitting=1;fontFamily=Architects Daughter;fontSource=https%3A%2F%2Ffonts.googleapis.com%2Fcss%3Ffamily%3DArchitects%2BDaughter;" vertex="1" connectable="0" parent="3Dd6kCoNUB1yUHotrozj-116">
          <mxGeometry x="-0.1986" y="-2" relative="1" as="geometry">
            <mxPoint as="offset" />
          </mxGeometry>
        </mxCell>
        <mxCell id="N6Xidad4AhdnbWr3vDnz-34" value="" style="endArrow=classic;html=1;rounded=0;sketch=1;hachureGap=4;jiggle=2;curveFitting=1;fontFamily=Architects Daughter;fontSource=https%3A%2F%2Ffonts.googleapis.com%2Fcss%3Ffamily%3DArchitects%2BDaughter;labelBackgroundColor=none;fontColor=default;" parent="1" edge="1">
          <mxGeometry relative="1" as="geometry">
            <mxPoint y="145.5" as="sourcePoint" />
            <mxPoint x="310" y="145.5" as="targetPoint" />
          </mxGeometry>
        </mxCell>
        <mxCell id="N6Xidad4AhdnbWr3vDnz-35" value="1491" style="edgeLabel;resizable=0;html=1;;align=center;verticalAlign=middle;sketch=1;hachureGap=4;jiggle=2;curveFitting=1;fontFamily=Architects Daughter;fontSource=https%3A%2F%2Ffonts.googleapis.com%2Fcss%3Ffamily%3DArchitects%2BDaughter;container=0;fontSize=13;rounded=0;labelBackgroundColor=none;" parent="N6Xidad4AhdnbWr3vDnz-34" connectable="0" vertex="1">
          <mxGeometry relative="1" as="geometry" />
        </mxCell>
        <mxCell id="N6Xidad4AhdnbWr3vDnz-21" value="" style="endArrow=classic;html=1;rounded=0;sketch=1;hachureGap=4;jiggle=2;curveFitting=1;fontFamily=Architects Daughter;fontSource=https%3A%2F%2Ffonts.googleapis.com%2Fcss%3Ffamily%3DArchitects%2BDaughter;labelBackgroundColor=none;fontColor=default;" parent="1" edge="1">
          <mxGeometry relative="1" as="geometry">
            <mxPoint x="5" y="355" as="sourcePoint" />
            <mxPoint x="65" y="355" as="targetPoint" />
          </mxGeometry>
        </mxCell>
        <mxCell id="N6Xidad4AhdnbWr3vDnz-22" value="16" style="edgeLabel;resizable=0;html=1;;align=center;verticalAlign=middle;sketch=1;hachureGap=4;jiggle=2;curveFitting=1;fontFamily=Architects Daughter;fontSource=https%3A%2F%2Ffonts.googleapis.com%2Fcss%3Ffamily%3DArchitects%2BDaughter;container=0;fontSize=13;rounded=0;labelBackgroundColor=none;" parent="N6Xidad4AhdnbWr3vDnz-21" connectable="0" vertex="1">
          <mxGeometry relative="1" as="geometry" />
        </mxCell>
        <mxCell id="N6Xidad4AhdnbWr3vDnz-23" value="" style="endArrow=classic;html=1;rounded=0;sketch=1;hachureGap=4;jiggle=2;curveFitting=1;fontFamily=Architects Daughter;fontSource=https%3A%2F%2Ffonts.googleapis.com%2Fcss%3Ffamily%3DArchitects%2BDaughter;labelBackgroundColor=none;fontColor=default;" parent="1" edge="1">
          <mxGeometry relative="1" as="geometry">
            <mxPoint y="195" as="sourcePoint" />
            <mxPoint y="355" as="targetPoint" />
          </mxGeometry>
        </mxCell>
        <mxCell id="N6Xidad4AhdnbWr3vDnz-24" value="1491" style="edgeLabel;resizable=0;html=1;;align=center;verticalAlign=middle;sketch=1;hachureGap=4;jiggle=2;curveFitting=1;fontFamily=Architects Daughter;fontSource=https%3A%2F%2Ffonts.googleapis.com%2Fcss%3Ffamily%3DArchitects%2BDaughter;container=0;fontSize=12;rounded=0;labelBackgroundColor=none;" parent="N6Xidad4AhdnbWr3vDnz-23" connectable="0" vertex="1">
          <mxGeometry relative="1" as="geometry" />
        </mxCell>
        <mxCell id="N6Xidad4AhdnbWr3vDnz-33" value="" style="endArrow=none;dashed=1;html=1;dashPattern=1 3;strokeWidth=2;rounded=0;sketch=1;hachureGap=4;jiggle=2;curveFitting=1;fontFamily=Architects Daughter;fontSource=https%3A%2F%2Ffonts.googleapis.com%2Fcss%3Ffamily%3DArchitects%2BDaughter;labelBackgroundColor=none;fontColor=default;" parent="1" edge="1">
          <mxGeometry width="50" height="50" relative="1" as="geometry">
            <mxPoint x="160" y="254.5" as="sourcePoint" />
            <mxPoint x="200" y="254.5" as="targetPoint" />
          </mxGeometry>
        </mxCell>
        <mxCell id="N6Xidad4AhdnbWr3vDnz-2" value="" style="rounded=0;whiteSpace=wrap;html=1;sketch=1;hachureGap=4;jiggle=2;curveFitting=1;fontFamily=Architects Daughter;fontSource=https%3A%2F%2Ffonts.googleapis.com%2Fcss%3Ffamily%3DArchitects%2BDaughter;labelBackgroundColor=none;container=0;" parent="1" vertex="1">
          <mxGeometry x="50" y="165" width="30" height="150" as="geometry" />
        </mxCell>
        <mxCell id="N6Xidad4AhdnbWr3vDnz-5" value="" style="rounded=0;whiteSpace=wrap;html=1;sketch=1;hachureGap=4;jiggle=2;curveFitting=1;fontFamily=Architects Daughter;fontSource=https%3A%2F%2Ffonts.googleapis.com%2Fcss%3Ffamily%3DArchitects%2BDaughter;labelBackgroundColor=none;container=0;" parent="1" vertex="1">
          <mxGeometry x="40" y="175" width="30" height="150" as="geometry" />
        </mxCell>
        <mxCell id="N6Xidad4AhdnbWr3vDnz-8" value="" style="rounded=0;whiteSpace=wrap;html=1;sketch=1;hachureGap=4;jiggle=2;curveFitting=1;fontFamily=Architects Daughter;fontSource=https%3A%2F%2Ffonts.googleapis.com%2Fcss%3Ffamily%3DArchitects%2BDaughter;labelBackgroundColor=none;container=0;" parent="1" vertex="1">
          <mxGeometry x="30" y="185" width="30" height="150" as="geometry" />
        </mxCell>
        <mxCell id="N6Xidad4AhdnbWr3vDnz-1" value="Q" style="rounded=0;whiteSpace=wrap;html=1;sketch=1;hachureGap=4;jiggle=2;curveFitting=1;fontFamily=Architects Daughter;fontSource=https%3A%2F%2Ffonts.googleapis.com%2Fcss%3Ffamily%3DArchitects%2BDaughter;labelBackgroundColor=none;container=0;" parent="1" vertex="1">
          <mxGeometry x="20" y="195" width="30" height="150" as="geometry" />
        </mxCell>
        <mxCell id="N6Xidad4AhdnbWr3vDnz-17" value="" style="rounded=0;whiteSpace=wrap;html=1;sketch=1;hachureGap=4;jiggle=2;curveFitting=1;fontFamily=Architects Daughter;fontSource=https%3A%2F%2Ffonts.googleapis.com%2Fcss%3Ffamily%3DArchitects%2BDaughter;labelBackgroundColor=none;container=0;" parent="1" vertex="1">
          <mxGeometry x="120" y="165" width="30" height="150" as="geometry" />
        </mxCell>
        <mxCell id="N6Xidad4AhdnbWr3vDnz-18" value="" style="rounded=0;whiteSpace=wrap;html=1;sketch=1;hachureGap=4;jiggle=2;curveFitting=1;fontFamily=Architects Daughter;fontSource=https%3A%2F%2Ffonts.googleapis.com%2Fcss%3Ffamily%3DArchitects%2BDaughter;labelBackgroundColor=none;container=0;" parent="1" vertex="1">
          <mxGeometry x="110" y="175" width="30" height="150" as="geometry" />
        </mxCell>
        <mxCell id="N6Xidad4AhdnbWr3vDnz-19" value="" style="rounded=0;whiteSpace=wrap;html=1;sketch=1;hachureGap=4;jiggle=2;curveFitting=1;fontFamily=Architects Daughter;fontSource=https%3A%2F%2Ffonts.googleapis.com%2Fcss%3Ffamily%3DArchitects%2BDaughter;labelBackgroundColor=none;container=0;" parent="1" vertex="1">
          <mxGeometry x="100" y="185" width="30" height="150" as="geometry" />
        </mxCell>
        <mxCell id="N6Xidad4AhdnbWr3vDnz-20" value="Q" style="rounded=0;whiteSpace=wrap;html=1;sketch=1;hachureGap=4;jiggle=2;curveFitting=1;fontFamily=Architects Daughter;fontSource=https%3A%2F%2Ffonts.googleapis.com%2Fcss%3Ffamily%3DArchitects%2BDaughter;labelBackgroundColor=none;container=0;" parent="1" vertex="1">
          <mxGeometry x="90" y="195" width="30" height="150" as="geometry" />
        </mxCell>
        <mxCell id="N6Xidad4AhdnbWr3vDnz-64" value="&lt;font&gt;467&lt;/font&gt;" style="text;html=1;align=center;verticalAlign=middle;resizable=0;points=[];autosize=1;strokeColor=none;fillColor=none;fontFamily=Architects Daughter;fontSource=https%3A%2F%2Ffonts.googleapis.com%2Fcss%3Ffamily%3DArchitects%2BDaughter;rounded=0;labelBackgroundColor=none;" parent="1" vertex="1">
          <mxGeometry x="283" y="284" width="50" height="30" as="geometry" />
        </mxCell>
        <mxCell id="N6Xidad4AhdnbWr3vDnz-53" value="&lt;font style=&quot;font-size: 13px;&quot;&gt;512&lt;/font&gt;" style="text;html=1;align=center;verticalAlign=middle;resizable=0;points=[];autosize=1;strokeColor=none;fillColor=none;fontFamily=Architects Daughter;fontSource=https%3A%2F%2Ffonts.googleapis.com%2Fcss%3Ffamily%3DArchitects%2BDaughter;container=0;rounded=0;labelBackgroundColor=none;" parent="1" vertex="1">
          <mxGeometry x="288" y="179" width="40" height="30" as="geometry" />
        </mxCell>
        <mxCell id="N6Xidad4AhdnbWr3vDnz-56" value="&lt;font style=&quot;font-size: 13px;&quot;&gt;512&lt;/font&gt;" style="text;html=1;align=center;verticalAlign=middle;resizable=0;points=[];autosize=1;strokeColor=none;fillColor=none;fontFamily=Architects Daughter;fontSource=https%3A%2F%2Ffonts.googleapis.com%2Fcss%3Ffamily%3DArchitects%2BDaughter;container=0;rounded=0;labelBackgroundColor=none;" parent="1" vertex="1">
          <mxGeometry x="288" y="239" width="40" height="30" as="geometry" />
        </mxCell>
        <mxCell id="N6Xidad4AhdnbWr3vDnz-52" value="" style="shape=curlyBracket;whiteSpace=wrap;html=1;rounded=0;flipH=1;labelPosition=right;verticalLabelPosition=middle;align=left;verticalAlign=middle;sketch=1;hachureGap=4;jiggle=2;curveFitting=1;fontFamily=Architects Daughter;fontSource=https%3A%2F%2Ffonts.googleapis.com%2Fcss%3Ffamily%3DArchitects%2BDaughter;container=0;labelBackgroundColor=none;" parent="1" vertex="1">
          <mxGeometry x="274" y="164" width="20" height="60" as="geometry" />
        </mxCell>
        <mxCell id="N6Xidad4AhdnbWr3vDnz-55" value="" style="shape=curlyBracket;whiteSpace=wrap;html=1;rounded=0;flipH=1;labelPosition=right;verticalLabelPosition=middle;align=left;verticalAlign=middle;sketch=1;hachureGap=4;jiggle=2;curveFitting=1;fontFamily=Architects Daughter;fontSource=https%3A%2F%2Ffonts.googleapis.com%2Fcss%3Ffamily%3DArchitects%2BDaughter;container=0;labelBackgroundColor=none;" parent="1" vertex="1">
          <mxGeometry x="274" y="224" width="20" height="60" as="geometry" />
        </mxCell>
        <mxCell id="N6Xidad4AhdnbWr3vDnz-61" value="" style="shape=curlyBracket;whiteSpace=wrap;html=1;rounded=0;flipH=1;labelPosition=right;verticalLabelPosition=middle;align=left;verticalAlign=middle;sketch=1;hachureGap=4;jiggle=2;curveFitting=1;fontFamily=Architects Daughter;fontSource=https%3A%2F%2Ffonts.googleapis.com%2Fcss%3Ffamily%3DArchitects%2BDaughter;container=0;labelBackgroundColor=none;" parent="1" vertex="1">
          <mxGeometry x="274" y="284" width="20" height="30" as="geometry" />
        </mxCell>
        <mxCell id="N6Xidad4AhdnbWr3vDnz-41" value="" style="rounded=0;whiteSpace=wrap;html=1;sketch=1;hachureGap=4;jiggle=2;curveFitting=1;fontFamily=Architects Daughter;fontSource=https%3A%2F%2Ffonts.googleapis.com%2Fcss%3Ffamily%3DArchitects%2BDaughter;labelBackgroundColor=none;container=0;" parent="1" vertex="1">
          <mxGeometry x="244" y="164" width="30" height="150" as="geometry" />
        </mxCell>
        <mxCell id="N6Xidad4AhdnbWr3vDnz-42" value="" style="rounded=0;whiteSpace=wrap;html=1;sketch=1;hachureGap=4;jiggle=2;curveFitting=1;fontFamily=Architects Daughter;fontSource=https%3A%2F%2Ffonts.googleapis.com%2Fcss%3Ffamily%3DArchitects%2BDaughter;labelBackgroundColor=none;container=0;" parent="1" vertex="1">
          <mxGeometry x="234" y="174" width="30" height="150" as="geometry" />
        </mxCell>
        <mxCell id="N6Xidad4AhdnbWr3vDnz-43" value="" style="rounded=0;whiteSpace=wrap;html=1;sketch=1;hachureGap=4;jiggle=2;curveFitting=1;fontFamily=Architects Daughter;fontSource=https%3A%2F%2Ffonts.googleapis.com%2Fcss%3Ffamily%3DArchitects%2BDaughter;labelBackgroundColor=none;container=0;" parent="1" vertex="1">
          <mxGeometry x="224" y="184" width="30" height="150" as="geometry" />
        </mxCell>
        <mxCell id="N6Xidad4AhdnbWr3vDnz-44" value="Q" style="rounded=0;whiteSpace=wrap;html=1;sketch=1;hachureGap=4;jiggle=2;curveFitting=1;fontFamily=Architects Daughter;fontSource=https%3A%2F%2Ffonts.googleapis.com%2Fcss%3Ffamily%3DArchitects%2BDaughter;labelBackgroundColor=none;container=0;" parent="1" vertex="1">
          <mxGeometry x="214" y="194" width="30" height="150" as="geometry" />
        </mxCell>
        <mxCell id="jezAV-IK5mSsvZsT85bj-29" value="" style="endArrow=classic;html=1;sketch=1;hachureGap=4;jiggle=2;curveFitting=1;fontFamily=Architects Daughter;fontSource=https%3A%2F%2Ffonts.googleapis.com%2Fcss%3Ffamily%3DArchitects%2BDaughter;" parent="1" edge="1">
          <mxGeometry width="50" height="50" relative="1" as="geometry">
            <mxPoint x="40" y="215" as="sourcePoint" />
            <mxPoint x="90" y="165" as="targetPoint" />
          </mxGeometry>
        </mxCell>
        <mxCell id="jezAV-IK5mSsvZsT85bj-33" value="4" style="edgeLabel;html=1;align=center;verticalAlign=middle;resizable=0;points=[];sketch=1;hachureGap=4;jiggle=2;curveFitting=1;fontFamily=Architects Daughter;fontSource=https%3A%2F%2Ffonts.googleapis.com%2Fcss%3Ffamily%3DArchitects%2BDaughter;" parent="jezAV-IK5mSsvZsT85bj-29" vertex="1" connectable="0">
          <mxGeometry x="-0.0038" relative="1" as="geometry">
            <mxPoint as="offset" />
          </mxGeometry>
        </mxCell>
        <mxCell id="3Dd6kCoNUB1yUHotrozj-164" value="" style="group" vertex="1" connectable="0" parent="1">
          <mxGeometry x="234" y="400" width="500" height="285" as="geometry" />
        </mxCell>
        <mxCell id="3Dd6kCoNUB1yUHotrozj-163" value="" style="shape=ext;double=1;rounded=1;whiteSpace=wrap;html=1;sketch=1;hachureGap=4;jiggle=2;curveFitting=1;fontFamily=Architects Daughter;fontSource=https%3A%2F%2Ffonts.googleapis.com%2Fcss%3Ffamily%3DArchitects%2BDaughter;" vertex="1" parent="3Dd6kCoNUB1yUHotrozj-164">
          <mxGeometry width="500" height="285" as="geometry" />
        </mxCell>
        <mxCell id="3Dd6kCoNUB1yUHotrozj-143" value="logits" style="rounded=0;whiteSpace=wrap;html=1;sketch=1;hachureGap=4;jiggle=2;curveFitting=1;fontFamily=Architects Daughter;fontSource=https%3A%2F%2Ffonts.googleapis.com%2Fcss%3Ffamily%3DArchitects%2BDaughter;container=0;" vertex="1" parent="3Dd6kCoNUB1yUHotrozj-164">
          <mxGeometry x="330" y="160" width="150" height="60" as="geometry" />
        </mxCell>
        <mxCell id="3Dd6kCoNUB1yUHotrozj-144" value="V" style="rounded=0;whiteSpace=wrap;html=1;sketch=1;hachureGap=4;jiggle=2;curveFitting=1;fontFamily=Architects Daughter;fontSource=https%3A%2F%2Ffonts.googleapis.com%2Fcss%3Ffamily%3DArchitects%2BDaughter;container=0;" vertex="1" parent="3Dd6kCoNUB1yUHotrozj-164">
          <mxGeometry x="20" y="114.75" width="30" height="150.5" as="geometry" />
        </mxCell>
        <mxCell id="3Dd6kCoNUB1yUHotrozj-145" value="" style="shape=sumEllipse;perimeter=ellipsePerimeter;whiteSpace=wrap;html=1;backgroundOutline=1;sketch=1;hachureGap=4;jiggle=2;curveFitting=1;fontFamily=Architects Daughter;fontSource=https%3A%2F%2Ffonts.googleapis.com%2Fcss%3Ffamily%3DArchitects%2BDaughter;labelBackgroundColor=none;container=0;" vertex="1" parent="3Dd6kCoNUB1yUHotrozj-164">
          <mxGeometry x="65" y="180" width="20" height="20" as="geometry" />
        </mxCell>
        <mxCell id="3Dd6kCoNUB1yUHotrozj-156" value="weights" style="rounded=0;whiteSpace=wrap;html=1;sketch=1;hachureGap=4;jiggle=2;curveFitting=1;fontFamily=Architects Daughter;fontSource=https%3A%2F%2Ffonts.googleapis.com%2Fcss%3Ffamily%3DArchitects%2BDaughter;container=0;" vertex="1" parent="3Dd6kCoNUB1yUHotrozj-164">
          <mxGeometry x="100" y="160" width="150" height="60" as="geometry" />
        </mxCell>
        <mxCell id="3Dd6kCoNUB1yUHotrozj-137" value="Q" style="rounded=0;whiteSpace=wrap;html=1;sketch=1;hachureGap=4;jiggle=2;curveFitting=1;fontFamily=Architects Daughter;fontSource=https%3A%2F%2Ffonts.googleapis.com%2Fcss%3Ffamily%3DArchitects%2BDaughter;labelBackgroundColor=none;container=0;" vertex="1" parent="3Dd6kCoNUB1yUHotrozj-164">
          <mxGeometry x="20" y="35" width="30" height="60" as="geometry" />
        </mxCell>
        <mxCell id="3Dd6kCoNUB1yUHotrozj-138" value="K" style="rounded=0;whiteSpace=wrap;html=1;sketch=1;hachureGap=4;jiggle=2;curveFitting=1;fontFamily=Architects Daughter;fontSource=https%3A%2F%2Ffonts.googleapis.com%2Fcss%3Ffamily%3DArchitects%2BDaughter;labelBackgroundColor=none;container=0;" vertex="1" parent="3Dd6kCoNUB1yUHotrozj-164">
          <mxGeometry x="110" y="50" width="150" height="30" as="geometry" />
        </mxCell>
        <mxCell id="3Dd6kCoNUB1yUHotrozj-139" value="" style="shape=sumEllipse;perimeter=ellipsePerimeter;whiteSpace=wrap;html=1;backgroundOutline=1;sketch=1;hachureGap=4;jiggle=2;curveFitting=1;fontFamily=Architects Daughter;fontSource=https%3A%2F%2Ffonts.googleapis.com%2Fcss%3Ffamily%3DArchitects%2BDaughter;labelBackgroundColor=none;container=0;" vertex="1" parent="3Dd6kCoNUB1yUHotrozj-164">
          <mxGeometry x="65" y="55" width="20" height="20" as="geometry" />
        </mxCell>
        <mxCell id="3Dd6kCoNUB1yUHotrozj-140" value="" style="shape=orEllipse;perimeter=ellipsePerimeter;whiteSpace=wrap;html=1;backgroundOutline=1;sketch=1;hachureGap=4;jiggle=2;curveFitting=1;fontFamily=Architects Daughter;fontSource=https%3A%2F%2Ffonts.googleapis.com%2Fcss%3Ffamily%3DArchitects%2BDaughter;container=0;" vertex="1" parent="3Dd6kCoNUB1yUHotrozj-164">
          <mxGeometry x="284" y="55" width="20" height="20" as="geometry" />
        </mxCell>
        <mxCell id="3Dd6kCoNUB1yUHotrozj-141" value="bias" style="rounded=0;whiteSpace=wrap;html=1;sketch=1;hachureGap=4;jiggle=2;curveFitting=1;fontFamily=Architects Daughter;fontSource=https%3A%2F%2Ffonts.googleapis.com%2Fcss%3Ffamily%3DArchitects%2BDaughter;container=0;" vertex="1" parent="3Dd6kCoNUB1yUHotrozj-164">
          <mxGeometry x="330" y="35" width="150" height="60" as="geometry" />
        </mxCell>
        <mxCell id="3Dd6kCoNUB1yUHotrozj-165" value="attention" style="text;html=1;align=center;verticalAlign=middle;resizable=0;points=[];autosize=1;strokeColor=none;fillColor=none;fontFamily=Architects Daughter;fontSource=https%3A%2F%2Ffonts.googleapis.com%2Fcss%3Ffamily%3DArchitects%2BDaughter;" vertex="1" parent="3Dd6kCoNUB1yUHotrozj-164">
          <mxGeometry x="204" y="10" width="70" height="30" as="geometry" />
        </mxCell>
        <mxCell id="3Dd6kCoNUB1yUHotrozj-171" value="" style="shape=flexArrow;endArrow=classic;html=1;rounded=0;sketch=1;hachureGap=4;jiggle=2;curveFitting=1;fontFamily=Architects Daughter;fontSource=https%3A%2F%2Ffonts.googleapis.com%2Fcss%3Ffamily%3DArchitects%2BDaughter;" edge="1" parent="3Dd6kCoNUB1yUHotrozj-164">
          <mxGeometry width="50" height="50" relative="1" as="geometry">
            <mxPoint x="404.5" y="100" as="sourcePoint" />
            <mxPoint x="404.5" y="160" as="targetPoint" />
          </mxGeometry>
        </mxCell>
        <mxCell id="3Dd6kCoNUB1yUHotrozj-172" value="add_mask" style="edgeLabel;html=1;align=center;verticalAlign=middle;resizable=0;points=[];sketch=1;hachureGap=4;jiggle=2;curveFitting=1;fontFamily=Architects Daughter;fontSource=https%3A%2F%2Ffonts.googleapis.com%2Fcss%3Ffamily%3DArchitects%2BDaughter;" vertex="1" connectable="0" parent="3Dd6kCoNUB1yUHotrozj-171">
          <mxGeometry x="-0.1831" y="1" relative="1" as="geometry">
            <mxPoint as="offset" />
          </mxGeometry>
        </mxCell>
        <mxCell id="3Dd6kCoNUB1yUHotrozj-173" value="" style="shape=flexArrow;endArrow=classic;html=1;rounded=0;sketch=1;hachureGap=4;jiggle=2;curveFitting=1;fontFamily=Architects Daughter;fontSource=https%3A%2F%2Ffonts.googleapis.com%2Fcss%3Ffamily%3DArchitects%2BDaughter;" edge="1" parent="3Dd6kCoNUB1yUHotrozj-164">
          <mxGeometry width="50" height="50" relative="1" as="geometry">
            <mxPoint x="320" y="189.5" as="sourcePoint" />
            <mxPoint x="250" y="189.5" as="targetPoint" />
          </mxGeometry>
        </mxCell>
        <mxCell id="3Dd6kCoNUB1yUHotrozj-174" value="softmax" style="edgeLabel;html=1;align=center;verticalAlign=middle;resizable=0;points=[];sketch=1;hachureGap=4;jiggle=2;curveFitting=1;fontFamily=Architects Daughter;fontSource=https%3A%2F%2Ffonts.googleapis.com%2Fcss%3Ffamily%3DArchitects%2BDaughter;" vertex="1" connectable="0" parent="3Dd6kCoNUB1yUHotrozj-173">
          <mxGeometry x="-0.1323" y="-1" relative="1" as="geometry">
            <mxPoint as="offset" />
          </mxGeometry>
        </mxCell>
        <mxCell id="3Dd6kCoNUB1yUHotrozj-178" value="Dimension 0 and dimension 1 will automatically broadcast calculations" style="text;html=1;align=center;verticalAlign=middle;resizable=0;points=[];autosize=1;strokeColor=none;fillColor=none;fontFamily=Architects Daughter;fontSource=https%3A%2F%2Ffonts.googleapis.com%2Fcss%3Ffamily%3DArchitects%2BDaughter;" vertex="1" parent="3Dd6kCoNUB1yUHotrozj-164">
          <mxGeometry x="65" y="235.25" width="400" height="30" as="geometry" />
        </mxCell>
        <mxCell id="3Dd6kCoNUB1yUHotrozj-181" style="edgeStyle=orthogonalEdgeStyle;rounded=0;sketch=1;hachureGap=4;jiggle=2;curveFitting=1;orthogonalLoop=1;jettySize=auto;html=1;exitX=0.1;exitY=0.5;exitDx=0;exitDy=0;exitPerimeter=0;entryX=1;entryY=0.5;entryDx=0;entryDy=0;fontFamily=Architects Daughter;fontSource=https%3A%2F%2Ffonts.googleapis.com%2Fcss%3Ffamily%3DArchitects%2BDaughter;" edge="1" parent="1" source="3Dd6kCoNUB1yUHotrozj-179" target="3Dd6kCoNUB1yUHotrozj-163">
          <mxGeometry relative="1" as="geometry">
            <Array as="points">
              <mxPoint x="754" y="303" />
              <mxPoint x="754" y="543" />
            </Array>
          </mxGeometry>
        </mxCell>
        <mxCell id="3Dd6kCoNUB1yUHotrozj-182" value="shape(1491 , 4 , 467, 1491)" style="edgeLabel;html=1;align=center;verticalAlign=middle;resizable=0;points=[];sketch=1;hachureGap=4;jiggle=2;curveFitting=1;fontFamily=Architects Daughter;fontSource=https%3A%2F%2Ffonts.googleapis.com%2Fcss%3Ffamily%3DArchitects%2BDaughter;" vertex="1" connectable="0" parent="3Dd6kCoNUB1yUHotrozj-181">
          <mxGeometry x="-0.4565" y="1" relative="1" as="geometry">
            <mxPoint as="offset" />
          </mxGeometry>
        </mxCell>
        <mxCell id="3Dd6kCoNUB1yUHotrozj-208" value="" style="shape=curlyBracket;whiteSpace=wrap;html=1;rounded=1;flipH=1;labelPosition=right;verticalLabelPosition=middle;align=left;verticalAlign=middle;sketch=1;hachureGap=4;jiggle=2;curveFitting=1;fontFamily=Architects Daughter;fontSource=https%3A%2F%2Ffonts.googleapis.com%2Fcss%3Ffamily%3DArchitects%2BDaughter;" vertex="1" parent="1">
          <mxGeometry x="710" y="140" width="20" height="59.5" as="geometry" />
        </mxCell>
        <mxCell id="3Dd6kCoNUB1yUHotrozj-290" value="" style="group" vertex="1" connectable="0" parent="1">
          <mxGeometry x="-102.5" y="450" width="295" height="205" as="geometry" />
        </mxCell>
        <mxCell id="3Dd6kCoNUB1yUHotrozj-278" value="" style="group" vertex="1" connectable="0" parent="3Dd6kCoNUB1yUHotrozj-290">
          <mxGeometry x="70" y="67.5" width="200" height="132.5" as="geometry" />
        </mxCell>
        <mxCell id="3Dd6kCoNUB1yUHotrozj-147" value="out" style="rounded=0;whiteSpace=wrap;html=1;sketch=1;hachureGap=4;jiggle=2;curveFitting=1;fontFamily=Architects Daughter;fontSource=https%3A%2F%2Ffonts.googleapis.com%2Fcss%3Ffamily%3DArchitects%2BDaughter;container=0;" vertex="1" parent="3Dd6kCoNUB1yUHotrozj-278">
          <mxGeometry x="170" y="62.5" width="30" height="40" as="geometry" />
        </mxCell>
        <mxCell id="3Dd6kCoNUB1yUHotrozj-213" value="out" style="rounded=0;whiteSpace=wrap;html=1;sketch=1;hachureGap=4;jiggle=2;curveFitting=1;fontFamily=Architects Daughter;fontSource=https%3A%2F%2Ffonts.googleapis.com%2Fcss%3Ffamily%3DArchitects%2BDaughter;container=0;" vertex="1" parent="3Dd6kCoNUB1yUHotrozj-278">
          <mxGeometry x="160" y="72.5" width="30" height="40" as="geometry" />
        </mxCell>
        <mxCell id="3Dd6kCoNUB1yUHotrozj-214" value="out" style="rounded=0;whiteSpace=wrap;html=1;sketch=1;hachureGap=4;jiggle=2;curveFitting=1;fontFamily=Architects Daughter;fontSource=https%3A%2F%2Ffonts.googleapis.com%2Fcss%3Ffamily%3DArchitects%2BDaughter;container=0;" vertex="1" parent="3Dd6kCoNUB1yUHotrozj-278">
          <mxGeometry x="150" y="82.5" width="30" height="40" as="geometry" />
        </mxCell>
        <mxCell id="3Dd6kCoNUB1yUHotrozj-215" value="out" style="rounded=0;whiteSpace=wrap;html=1;sketch=1;hachureGap=4;jiggle=2;curveFitting=1;fontFamily=Architects Daughter;fontSource=https%3A%2F%2Ffonts.googleapis.com%2Fcss%3Ffamily%3DArchitects%2BDaughter;container=0;" vertex="1" parent="3Dd6kCoNUB1yUHotrozj-278">
          <mxGeometry x="140" y="92.5" width="30" height="40" as="geometry" />
        </mxCell>
        <mxCell id="3Dd6kCoNUB1yUHotrozj-232" value="out" style="rounded=0;whiteSpace=wrap;html=1;sketch=1;hachureGap=4;jiggle=2;curveFitting=1;fontFamily=Architects Daughter;fontSource=https%3A%2F%2Ffonts.googleapis.com%2Fcss%3Ffamily%3DArchitects%2BDaughter;container=0;" vertex="1" parent="3Dd6kCoNUB1yUHotrozj-278">
          <mxGeometry x="30" y="62.5" width="30" height="40" as="geometry" />
        </mxCell>
        <mxCell id="3Dd6kCoNUB1yUHotrozj-233" value="out" style="rounded=0;whiteSpace=wrap;html=1;sketch=1;hachureGap=4;jiggle=2;curveFitting=1;fontFamily=Architects Daughter;fontSource=https%3A%2F%2Ffonts.googleapis.com%2Fcss%3Ffamily%3DArchitects%2BDaughter;container=0;" vertex="1" parent="3Dd6kCoNUB1yUHotrozj-278">
          <mxGeometry x="20" y="72.5" width="30" height="40" as="geometry" />
        </mxCell>
        <mxCell id="3Dd6kCoNUB1yUHotrozj-234" value="out" style="rounded=0;whiteSpace=wrap;html=1;sketch=1;hachureGap=4;jiggle=2;curveFitting=1;fontFamily=Architects Daughter;fontSource=https%3A%2F%2Ffonts.googleapis.com%2Fcss%3Ffamily%3DArchitects%2BDaughter;container=0;" vertex="1" parent="3Dd6kCoNUB1yUHotrozj-278">
          <mxGeometry x="10" y="82.5" width="30" height="40" as="geometry" />
        </mxCell>
        <mxCell id="3Dd6kCoNUB1yUHotrozj-235" value="out" style="rounded=0;whiteSpace=wrap;html=1;sketch=1;hachureGap=4;jiggle=2;curveFitting=1;fontFamily=Architects Daughter;fontSource=https%3A%2F%2Ffonts.googleapis.com%2Fcss%3Ffamily%3DArchitects%2BDaughter;container=0;" vertex="1" parent="3Dd6kCoNUB1yUHotrozj-278">
          <mxGeometry y="92.5" width="30" height="40" as="geometry" />
        </mxCell>
        <mxCell id="3Dd6kCoNUB1yUHotrozj-236" value="out" style="rounded=0;whiteSpace=wrap;html=1;sketch=1;hachureGap=4;jiggle=2;curveFitting=1;fontFamily=Architects Daughter;fontSource=https%3A%2F%2Ffonts.googleapis.com%2Fcss%3Ffamily%3DArchitects%2BDaughter;container=0;" vertex="1" parent="3Dd6kCoNUB1yUHotrozj-278">
          <mxGeometry x="80" y="62.5" width="30" height="40" as="geometry" />
        </mxCell>
        <mxCell id="3Dd6kCoNUB1yUHotrozj-237" value="out" style="rounded=0;whiteSpace=wrap;html=1;sketch=1;hachureGap=4;jiggle=2;curveFitting=1;fontFamily=Architects Daughter;fontSource=https%3A%2F%2Ffonts.googleapis.com%2Fcss%3Ffamily%3DArchitects%2BDaughter;container=0;" vertex="1" parent="3Dd6kCoNUB1yUHotrozj-278">
          <mxGeometry x="70" y="72.5" width="30" height="40" as="geometry" />
        </mxCell>
        <mxCell id="3Dd6kCoNUB1yUHotrozj-238" value="out" style="rounded=0;whiteSpace=wrap;html=1;sketch=1;hachureGap=4;jiggle=2;curveFitting=1;fontFamily=Architects Daughter;fontSource=https%3A%2F%2Ffonts.googleapis.com%2Fcss%3Ffamily%3DArchitects%2BDaughter;container=0;" vertex="1" parent="3Dd6kCoNUB1yUHotrozj-278">
          <mxGeometry x="60" y="82.5" width="30" height="40" as="geometry" />
        </mxCell>
        <mxCell id="3Dd6kCoNUB1yUHotrozj-239" value="out" style="rounded=0;whiteSpace=wrap;html=1;sketch=1;hachureGap=4;jiggle=2;curveFitting=1;fontFamily=Architects Daughter;fontSource=https%3A%2F%2Ffonts.googleapis.com%2Fcss%3Ffamily%3DArchitects%2BDaughter;container=0;" vertex="1" parent="3Dd6kCoNUB1yUHotrozj-278">
          <mxGeometry x="50" y="92.5" width="30" height="40" as="geometry" />
        </mxCell>
        <mxCell id="3Dd6kCoNUB1yUHotrozj-248" value="" style="group" vertex="1" connectable="0" parent="3Dd6kCoNUB1yUHotrozj-278">
          <mxGeometry y="2.5" width="60" height="92.5" as="geometry" />
        </mxCell>
        <mxCell id="3Dd6kCoNUB1yUHotrozj-244" value="out" style="rounded=0;whiteSpace=wrap;html=1;sketch=1;hachureGap=4;jiggle=2;curveFitting=1;fontFamily=Architects Daughter;fontSource=https%3A%2F%2Ffonts.googleapis.com%2Fcss%3Ffamily%3DArchitects%2BDaughter;" vertex="1" parent="3Dd6kCoNUB1yUHotrozj-248">
          <mxGeometry x="30" width="30" height="60" as="geometry" />
        </mxCell>
        <mxCell id="3Dd6kCoNUB1yUHotrozj-245" value="out" style="rounded=0;whiteSpace=wrap;html=1;sketch=1;hachureGap=4;jiggle=2;curveFitting=1;fontFamily=Architects Daughter;fontSource=https%3A%2F%2Ffonts.googleapis.com%2Fcss%3Ffamily%3DArchitects%2BDaughter;" vertex="1" parent="3Dd6kCoNUB1yUHotrozj-248">
          <mxGeometry x="20" y="10" width="30" height="60" as="geometry" />
        </mxCell>
        <mxCell id="3Dd6kCoNUB1yUHotrozj-246" value="out" style="rounded=0;whiteSpace=wrap;html=1;sketch=1;hachureGap=4;jiggle=2;curveFitting=1;fontFamily=Architects Daughter;fontSource=https%3A%2F%2Ffonts.googleapis.com%2Fcss%3Ffamily%3DArchitects%2BDaughter;" vertex="1" parent="3Dd6kCoNUB1yUHotrozj-248">
          <mxGeometry x="10" y="20" width="30" height="60" as="geometry" />
        </mxCell>
        <mxCell id="3Dd6kCoNUB1yUHotrozj-247" value="out" style="rounded=0;whiteSpace=wrap;html=1;sketch=1;hachureGap=4;jiggle=2;curveFitting=1;fontFamily=Architects Daughter;fontSource=https%3A%2F%2Ffonts.googleapis.com%2Fcss%3Ffamily%3DArchitects%2BDaughter;" vertex="1" parent="3Dd6kCoNUB1yUHotrozj-248">
          <mxGeometry y="32.5" width="30" height="60" as="geometry" />
        </mxCell>
        <mxCell id="3Dd6kCoNUB1yUHotrozj-249" value="" style="group" vertex="1" connectable="0" parent="3Dd6kCoNUB1yUHotrozj-278">
          <mxGeometry x="50" width="60" height="92.5" as="geometry" />
        </mxCell>
        <mxCell id="3Dd6kCoNUB1yUHotrozj-250" value="out" style="rounded=0;whiteSpace=wrap;html=1;sketch=1;hachureGap=4;jiggle=2;curveFitting=1;fontFamily=Architects Daughter;fontSource=https%3A%2F%2Ffonts.googleapis.com%2Fcss%3Ffamily%3DArchitects%2BDaughter;" vertex="1" parent="3Dd6kCoNUB1yUHotrozj-249">
          <mxGeometry x="30" width="30" height="60" as="geometry" />
        </mxCell>
        <mxCell id="3Dd6kCoNUB1yUHotrozj-251" value="out" style="rounded=0;whiteSpace=wrap;html=1;sketch=1;hachureGap=4;jiggle=2;curveFitting=1;fontFamily=Architects Daughter;fontSource=https%3A%2F%2Ffonts.googleapis.com%2Fcss%3Ffamily%3DArchitects%2BDaughter;" vertex="1" parent="3Dd6kCoNUB1yUHotrozj-249">
          <mxGeometry x="20" y="10" width="30" height="60" as="geometry" />
        </mxCell>
        <mxCell id="3Dd6kCoNUB1yUHotrozj-252" value="out" style="rounded=0;whiteSpace=wrap;html=1;sketch=1;hachureGap=4;jiggle=2;curveFitting=1;fontFamily=Architects Daughter;fontSource=https%3A%2F%2Ffonts.googleapis.com%2Fcss%3Ffamily%3DArchitects%2BDaughter;" vertex="1" parent="3Dd6kCoNUB1yUHotrozj-249">
          <mxGeometry x="10" y="20" width="30" height="60" as="geometry" />
        </mxCell>
        <mxCell id="3Dd6kCoNUB1yUHotrozj-253" value="out" style="rounded=0;whiteSpace=wrap;html=1;sketch=1;hachureGap=4;jiggle=2;curveFitting=1;fontFamily=Architects Daughter;fontSource=https%3A%2F%2Ffonts.googleapis.com%2Fcss%3Ffamily%3DArchitects%2BDaughter;" vertex="1" parent="3Dd6kCoNUB1yUHotrozj-249">
          <mxGeometry y="32.5" width="30" height="60" as="geometry" />
        </mxCell>
        <mxCell id="3Dd6kCoNUB1yUHotrozj-254" value="" style="group" vertex="1" connectable="0" parent="3Dd6kCoNUB1yUHotrozj-278">
          <mxGeometry x="140" width="60" height="92.5" as="geometry" />
        </mxCell>
        <mxCell id="3Dd6kCoNUB1yUHotrozj-255" value="out" style="rounded=0;whiteSpace=wrap;html=1;sketch=1;hachureGap=4;jiggle=2;curveFitting=1;fontFamily=Architects Daughter;fontSource=https%3A%2F%2Ffonts.googleapis.com%2Fcss%3Ffamily%3DArchitects%2BDaughter;" vertex="1" parent="3Dd6kCoNUB1yUHotrozj-254">
          <mxGeometry x="30" width="30" height="60" as="geometry" />
        </mxCell>
        <mxCell id="3Dd6kCoNUB1yUHotrozj-256" value="out" style="rounded=0;whiteSpace=wrap;html=1;sketch=1;hachureGap=4;jiggle=2;curveFitting=1;fontFamily=Architects Daughter;fontSource=https%3A%2F%2Ffonts.googleapis.com%2Fcss%3Ffamily%3DArchitects%2BDaughter;" vertex="1" parent="3Dd6kCoNUB1yUHotrozj-254">
          <mxGeometry x="20" y="10" width="30" height="60" as="geometry" />
        </mxCell>
        <mxCell id="3Dd6kCoNUB1yUHotrozj-257" value="out" style="rounded=0;whiteSpace=wrap;html=1;sketch=1;hachureGap=4;jiggle=2;curveFitting=1;fontFamily=Architects Daughter;fontSource=https%3A%2F%2Ffonts.googleapis.com%2Fcss%3Ffamily%3DArchitects%2BDaughter;" vertex="1" parent="3Dd6kCoNUB1yUHotrozj-254">
          <mxGeometry x="10" y="20" width="30" height="60" as="geometry" />
        </mxCell>
        <mxCell id="3Dd6kCoNUB1yUHotrozj-258" value="out" style="rounded=0;whiteSpace=wrap;html=1;sketch=1;hachureGap=4;jiggle=2;curveFitting=1;fontFamily=Architects Daughter;fontSource=https%3A%2F%2Ffonts.googleapis.com%2Fcss%3Ffamily%3DArchitects%2BDaughter;" vertex="1" parent="3Dd6kCoNUB1yUHotrozj-254">
          <mxGeometry y="32.5" width="30" height="60" as="geometry" />
        </mxCell>
        <mxCell id="3Dd6kCoNUB1yUHotrozj-260" value="" style="group" vertex="1" connectable="0" parent="3Dd6kCoNUB1yUHotrozj-254">
          <mxGeometry x="-140" y="-55" width="60" height="92.5" as="geometry" />
        </mxCell>
        <mxCell id="3Dd6kCoNUB1yUHotrozj-261" value="out" style="rounded=0;whiteSpace=wrap;html=1;sketch=1;hachureGap=4;jiggle=2;curveFitting=1;fontFamily=Architects Daughter;fontSource=https://fonts.googleapis.com/css?family=Architects+Daughter;" vertex="1" parent="3Dd6kCoNUB1yUHotrozj-260">
          <mxGeometry x="30" width="30" height="60" as="geometry" />
        </mxCell>
        <mxCell id="3Dd6kCoNUB1yUHotrozj-262" value="out" style="rounded=0;whiteSpace=wrap;html=1;sketch=1;hachureGap=4;jiggle=2;curveFitting=1;fontFamily=Architects Daughter;fontSource=https://fonts.googleapis.com/css?family=Architects+Daughter;" vertex="1" parent="3Dd6kCoNUB1yUHotrozj-260">
          <mxGeometry x="20" y="10" width="30" height="60" as="geometry" />
        </mxCell>
        <mxCell id="3Dd6kCoNUB1yUHotrozj-263" value="out" style="rounded=0;whiteSpace=wrap;html=1;sketch=1;hachureGap=4;jiggle=2;curveFitting=1;fontFamily=Architects Daughter;fontSource=https://fonts.googleapis.com/css?family=Architects+Daughter;" vertex="1" parent="3Dd6kCoNUB1yUHotrozj-260">
          <mxGeometry x="10" y="20" width="30" height="60" as="geometry" />
        </mxCell>
        <mxCell id="3Dd6kCoNUB1yUHotrozj-264" value="out" style="rounded=0;whiteSpace=wrap;html=1;sketch=1;hachureGap=4;jiggle=2;curveFitting=1;fontFamily=Architects Daughter;fontSource=https://fonts.googleapis.com/css?family=Architects+Daughter;" vertex="1" parent="3Dd6kCoNUB1yUHotrozj-260">
          <mxGeometry y="32.5" width="30" height="60" as="geometry" />
        </mxCell>
        <mxCell id="3Dd6kCoNUB1yUHotrozj-265" value="" style="group" vertex="1" connectable="0" parent="3Dd6kCoNUB1yUHotrozj-254">
          <mxGeometry x="-90" y="-57.5" width="60" height="92.5" as="geometry" />
        </mxCell>
        <mxCell id="3Dd6kCoNUB1yUHotrozj-266" value="out" style="rounded=0;whiteSpace=wrap;html=1;sketch=1;hachureGap=4;jiggle=2;curveFitting=1;fontFamily=Architects Daughter;fontSource=https://fonts.googleapis.com/css?family=Architects+Daughter;" vertex="1" parent="3Dd6kCoNUB1yUHotrozj-265">
          <mxGeometry x="30" width="30" height="60" as="geometry" />
        </mxCell>
        <mxCell id="3Dd6kCoNUB1yUHotrozj-267" value="out" style="rounded=0;whiteSpace=wrap;html=1;sketch=1;hachureGap=4;jiggle=2;curveFitting=1;fontFamily=Architects Daughter;fontSource=https://fonts.googleapis.com/css?family=Architects+Daughter;" vertex="1" parent="3Dd6kCoNUB1yUHotrozj-265">
          <mxGeometry x="20" y="10" width="30" height="60" as="geometry" />
        </mxCell>
        <mxCell id="3Dd6kCoNUB1yUHotrozj-268" value="out" style="rounded=0;whiteSpace=wrap;html=1;sketch=1;hachureGap=4;jiggle=2;curveFitting=1;fontFamily=Architects Daughter;fontSource=https://fonts.googleapis.com/css?family=Architects+Daughter;" vertex="1" parent="3Dd6kCoNUB1yUHotrozj-265">
          <mxGeometry x="10" y="20" width="30" height="60" as="geometry" />
        </mxCell>
        <mxCell id="3Dd6kCoNUB1yUHotrozj-269" value="out" style="rounded=0;whiteSpace=wrap;html=1;sketch=1;hachureGap=4;jiggle=2;curveFitting=1;fontFamily=Architects Daughter;fontSource=https://fonts.googleapis.com/css?family=Architects+Daughter;" vertex="1" parent="3Dd6kCoNUB1yUHotrozj-265">
          <mxGeometry y="32.5" width="30" height="60" as="geometry" />
        </mxCell>
        <mxCell id="3Dd6kCoNUB1yUHotrozj-281" value="" style="endArrow=classic;html=1;sketch=1;hachureGap=4;jiggle=2;curveFitting=1;fontFamily=Architects Daughter;fontSource=https%3A%2F%2Ffonts.googleapis.com%2Fcss%3Ffamily%3DArchitects%2BDaughter;" edge="1" parent="3Dd6kCoNUB1yUHotrozj-265">
          <mxGeometry width="50" height="50" relative="1" as="geometry">
            <mxPoint x="-30" y="55" as="sourcePoint" />
            <mxPoint x="20" y="5" as="targetPoint" />
          </mxGeometry>
        </mxCell>
        <mxCell id="3Dd6kCoNUB1yUHotrozj-282" value="4" style="edgeLabel;html=1;align=center;verticalAlign=middle;resizable=0;points=[];sketch=1;hachureGap=4;jiggle=2;curveFitting=1;fontFamily=Architects Daughter;fontSource=https%3A%2F%2Ffonts.googleapis.com%2Fcss%3Ffamily%3DArchitects%2BDaughter;" vertex="1" connectable="0" parent="3Dd6kCoNUB1yUHotrozj-281">
          <mxGeometry x="-0.0038" relative="1" as="geometry">
            <mxPoint as="offset" />
          </mxGeometry>
        </mxCell>
        <mxCell id="3Dd6kCoNUB1yUHotrozj-270" value="" style="group" vertex="1" connectable="0" parent="3Dd6kCoNUB1yUHotrozj-254">
          <mxGeometry y="-57.5" width="60" height="92.5" as="geometry" />
        </mxCell>
        <mxCell id="3Dd6kCoNUB1yUHotrozj-271" value="out" style="rounded=0;whiteSpace=wrap;html=1;sketch=1;hachureGap=4;jiggle=2;curveFitting=1;fontFamily=Architects Daughter;fontSource=https://fonts.googleapis.com/css?family=Architects+Daughter;" vertex="1" parent="3Dd6kCoNUB1yUHotrozj-270">
          <mxGeometry x="30" width="30" height="60" as="geometry" />
        </mxCell>
        <mxCell id="3Dd6kCoNUB1yUHotrozj-272" value="out" style="rounded=0;whiteSpace=wrap;html=1;sketch=1;hachureGap=4;jiggle=2;curveFitting=1;fontFamily=Architects Daughter;fontSource=https://fonts.googleapis.com/css?family=Architects+Daughter;" vertex="1" parent="3Dd6kCoNUB1yUHotrozj-270">
          <mxGeometry x="20" y="10" width="30" height="60" as="geometry" />
        </mxCell>
        <mxCell id="3Dd6kCoNUB1yUHotrozj-273" value="out" style="rounded=0;whiteSpace=wrap;html=1;sketch=1;hachureGap=4;jiggle=2;curveFitting=1;fontFamily=Architects Daughter;fontSource=https://fonts.googleapis.com/css?family=Architects+Daughter;" vertex="1" parent="3Dd6kCoNUB1yUHotrozj-270">
          <mxGeometry x="10" y="20" width="30" height="60" as="geometry" />
        </mxCell>
        <mxCell id="3Dd6kCoNUB1yUHotrozj-274" value="out" style="rounded=0;whiteSpace=wrap;html=1;sketch=1;hachureGap=4;jiggle=2;curveFitting=1;fontFamily=Architects Daughter;fontSource=https://fonts.googleapis.com/css?family=Architects+Daughter;" vertex="1" parent="3Dd6kCoNUB1yUHotrozj-270">
          <mxGeometry y="32.5" width="30" height="60" as="geometry" />
        </mxCell>
        <mxCell id="3Dd6kCoNUB1yUHotrozj-275" value="" style="endArrow=none;dashed=1;html=1;dashPattern=1 3;strokeWidth=2;rounded=0;sketch=1;hachureGap=4;jiggle=2;curveFitting=1;fontFamily=Architects Daughter;fontSource=https%3A%2F%2Ffonts.googleapis.com%2Fcss%3Ffamily%3DArchitects%2BDaughter;labelBackgroundColor=none;fontColor=default;" edge="1" parent="3Dd6kCoNUB1yUHotrozj-278">
          <mxGeometry width="50" height="50" relative="1" as="geometry">
            <mxPoint x="114" y="36.5" as="sourcePoint" />
            <mxPoint x="134" y="36.5" as="targetPoint" />
          </mxGeometry>
        </mxCell>
        <mxCell id="3Dd6kCoNUB1yUHotrozj-279" value="" style="endArrow=classic;html=1;rounded=0;sketch=1;hachureGap=4;jiggle=2;curveFitting=1;fontFamily=Architects Daughter;fontSource=https%3A%2F%2Ffonts.googleapis.com%2Fcss%3Ffamily%3DArchitects%2BDaughter;labelBackgroundColor=none;fontColor=default;" edge="1" parent="3Dd6kCoNUB1yUHotrozj-278">
          <mxGeometry relative="1" as="geometry">
            <mxPoint x="-10" y="142.5" as="sourcePoint" />
            <mxPoint x="50" y="142.5" as="targetPoint" />
          </mxGeometry>
        </mxCell>
        <mxCell id="3Dd6kCoNUB1yUHotrozj-280" value="16" style="edgeLabel;resizable=0;html=1;;align=center;verticalAlign=middle;sketch=1;hachureGap=4;jiggle=2;curveFitting=1;fontFamily=Architects Daughter;fontSource=https%3A%2F%2Ffonts.googleapis.com%2Fcss%3Ffamily%3DArchitects%2BDaughter;container=0;fontSize=13;rounded=0;labelBackgroundColor=none;" connectable="0" vertex="1" parent="3Dd6kCoNUB1yUHotrozj-279">
          <mxGeometry relative="1" as="geometry" />
        </mxCell>
        <mxCell id="3Dd6kCoNUB1yUHotrozj-283" value="" style="endArrow=classic;html=1;rounded=0;sketch=1;hachureGap=4;jiggle=2;curveFitting=1;fontFamily=Architects Daughter;fontSource=https%3A%2F%2Ffonts.googleapis.com%2Fcss%3Ffamily%3DArchitects%2BDaughter;labelBackgroundColor=none;fontColor=default;" edge="1" parent="3Dd6kCoNUB1yUHotrozj-290">
          <mxGeometry relative="1" as="geometry">
            <mxPoint x="60" y="45" as="sourcePoint" />
            <mxPoint x="60" y="205" as="targetPoint" />
          </mxGeometry>
        </mxCell>
        <mxCell id="3Dd6kCoNUB1yUHotrozj-284" value="1491" style="edgeLabel;resizable=0;html=1;;align=center;verticalAlign=middle;sketch=1;hachureGap=4;jiggle=2;curveFitting=1;fontFamily=Architects Daughter;fontSource=https%3A%2F%2Ffonts.googleapis.com%2Fcss%3Ffamily%3DArchitects%2BDaughter;container=0;fontSize=12;rounded=0;labelBackgroundColor=none;" connectable="0" vertex="1" parent="3Dd6kCoNUB1yUHotrozj-283">
          <mxGeometry relative="1" as="geometry" />
        </mxCell>
        <mxCell id="3Dd6kCoNUB1yUHotrozj-285" value="" style="endArrow=classic;html=1;rounded=0;sketch=1;hachureGap=4;jiggle=2;curveFitting=1;fontFamily=Architects Daughter;fontSource=https%3A%2F%2Ffonts.googleapis.com%2Fcss%3Ffamily%3DArchitects%2BDaughter;labelBackgroundColor=none;fontColor=default;" edge="1" parent="3Dd6kCoNUB1yUHotrozj-290">
          <mxGeometry relative="1" as="geometry">
            <mxPoint x="55" as="sourcePoint" />
            <mxPoint x="295" as="targetPoint" />
          </mxGeometry>
        </mxCell>
        <mxCell id="3Dd6kCoNUB1yUHotrozj-286" value="1491" style="edgeLabel;resizable=0;html=1;;align=center;verticalAlign=middle;sketch=1;hachureGap=4;jiggle=2;curveFitting=1;fontFamily=Architects Daughter;fontSource=https%3A%2F%2Ffonts.googleapis.com%2Fcss%3Ffamily%3DArchitects%2BDaughter;container=0;fontSize=13;rounded=0;labelBackgroundColor=none;" connectable="0" vertex="1" parent="3Dd6kCoNUB1yUHotrozj-285">
          <mxGeometry relative="1" as="geometry" />
        </mxCell>
        <mxCell id="3Dd6kCoNUB1yUHotrozj-288" value="" style="shape=curlyBracket;whiteSpace=wrap;html=1;rounded=1;labelPosition=left;verticalLabelPosition=middle;align=right;verticalAlign=middle;sketch=1;hachureGap=4;jiggle=2;curveFitting=1;fontFamily=Architects Daughter;fontSource=https%3A%2F%2Ffonts.googleapis.com%2Fcss%3Ffamily%3DArchitects%2BDaughter;" vertex="1" parent="3Dd6kCoNUB1yUHotrozj-290">
          <mxGeometry x="30" y="50" width="20" height="140" as="geometry" />
        </mxCell>
        <mxCell id="3Dd6kCoNUB1yUHotrozj-289" value="cat" style="text;html=1;align=center;verticalAlign=middle;resizable=0;points=[];autosize=1;strokeColor=none;fillColor=none;fontFamily=Architects Daughter;fontSource=https%3A%2F%2Ffonts.googleapis.com%2Fcss%3Ffamily%3DArchitects%2BDaughter;" vertex="1" parent="3Dd6kCoNUB1yUHotrozj-290">
          <mxGeometry y="105" width="40" height="30" as="geometry" />
        </mxCell>
        <mxCell id="3Dd6kCoNUB1yUHotrozj-176" value="" style="shape=flexArrow;endArrow=classic;html=1;rounded=0;sketch=1;hachureGap=4;jiggle=2;curveFitting=1;fontFamily=Architects Daughter;fontSource=https%3A%2F%2Ffonts.googleapis.com%2Fcss%3Ffamily%3DArchitects%2BDaughter;" edge="1" parent="1">
          <mxGeometry width="50" height="50" relative="1" as="geometry">
            <mxPoint x="224" y="599.5" as="sourcePoint" />
            <mxPoint x="164" y="599.5" as="targetPoint" />
          </mxGeometry>
        </mxCell>
        <mxCell id="3Dd6kCoNUB1yUHotrozj-183" value="output" style="edgeLabel;html=1;align=center;verticalAlign=middle;resizable=0;points=[];sketch=1;hachureGap=4;jiggle=2;curveFitting=1;fontFamily=Architects Daughter;fontSource=https%3A%2F%2Ffonts.googleapis.com%2Fcss%3Ffamily%3DArchitects%2BDaughter;" vertex="1" connectable="0" parent="3Dd6kCoNUB1yUHotrozj-176">
          <mxGeometry x="-0.021" y="-1" relative="1" as="geometry">
            <mxPoint as="offset" />
          </mxGeometry>
        </mxCell>
      </root>
    </mxGraphModel>
  </diagram>
</mxfile>
